<?xml version="1.0" encoding="UTF-8" standalone="no"?>
<svg xmlns:dc="http://purl.org/dc/elements/1.1/" xmlns:cc="http://creativecommons.org/ns#" xmlns:rdf="http://www.w3.org/1999/02/22-rdf-syntax-ns#" xmlns:svg="http://www.w3.org/2000/svg" xmlns="http://www.w3.org/2000/svg" id="svg4171" version="1.1" xml:space="preserve" width="1000" height="343.07544" viewBox="0 0 1000 343.07544">
  <metadata id="metadata4177">
    <rdf:RDF>
      <cc:Work rdf:about="">
        <dc:format>image/svg+xml</dc:format>
        <dc:type rdf:resource="http://purl.org/dc/dcmitype/StillImage" />
        <dc:title />
      </cc:Work>
    </rdf:RDF>
  </metadata>
  <defs id="defs4175">
    <clipPath clipPathUnits="userSpaceOnUse" id="clipPath4187">
      <path d="m 0,425.197 708.661,0 L 708.661,0 0,0 0,425.197 Z" id="path4189" />
    </clipPath>
    <filter xmlns="http://www.w3.org/2000/svg" id="filter0_d_1_347" x="176" y="176" width="108" height="108" filterUnits="userSpaceOnUse" color-interpolation-filters="sRGB">
      <feFlood flood-opacity="0" result="BackgroundImageFix" />
      <feColorMatrix in="SourceAlpha" type="matrix" values="0 0 0 0 0 0 0 0 0 0 0 0 0 0 0 0 0 0 127 0" result="hardAlpha" />
      <feOffset />
      <feGaussianBlur stdDeviation="2" />
      <feColorMatrix type="matrix" values="0 0 0 0 0 0 0 0 0 0 0 0 0 0 0 0 0 0 0.25 0" />
      <feBlend mode="normal" in2="BackgroundImageFix" result="effect1_dropShadow_1_347" />
      <feBlend mode="normal" in="SourceGraphic" in2="effect1_dropShadow_1_347" result="shape" />
    </filter>
  </defs>
  <g id="g4179" transform="matrix(4.5434286,0,0,-4.5434286,-1107.6066,1139.5244)">
    <g id="g4183" style="fill:#042b48;fill-opacity:1">
      <g id="g4185" clip-path="url(#clipPath4187)" style="fill:#042b48;fill-opacity:1">
        <g id="g4191" transform="translate(340.9854,217.5791)" style="fill:#042b48;fill-opacity:1">
          <path d="m 0,0 c 0,-2.425 -0.463,-4.637 -1.3,-6.226 -1.009,-1.905 -2.173,-3.234 -3.366,-3.843 -1.641,-0.835 -3.707,-1.69 -6.586,-1.69 l -4.044,0 0,22.753 3.221,0 c 4.28,0 7.213,-0.841 8.971,-2.572 C -1.014,6.363 0,3.608 0,0 m -1.89,15.206 c -2.434,1.24 -6.053,1.24 -10.633,1.24 l -7.069,0 c -1.158,0 -2.097,-0.939 -2.097,-2.097 l 0,-29.463 c 0,-1.157 0.939,-2.096 2.097,-2.096 l 6.662,0 c 3.78,0 7.209,0.393 9.411,1.079 1.585,0.491 3.181,1.529 5.022,3.27 1.559,1.472 2.785,3.317 3.642,5.484 0.886,2.243 1.318,4.609 1.318,7.232 0,3.66 -0.771,6.809 -2.359,9.622 -1.441,2.558 -3.344,4.377 -5.994,5.729" style="fill:#042b48;fill-opacity:1;fill-rule:nonzero;stroke:none" id="path4193" />
        </g>
        <g id="g4195" transform="translate(463.0322,205.8203)" style="fill:#042b48;fill-opacity:1">
          <path d="m 0,0 -10.436,0 0,27.36 c 0,0.467 -0.38,0.845 -0.845,0.845 l -4.702,0 c -0.466,0 -0.845,-0.378 -0.845,-0.845 l 0,-31.966 c 0,-0.467 0.379,-0.846 0.845,-0.846 l 15.983,0 c 0.465,0 0.848,0.379 0.848,0.846 l 0,3.759 C 0.848,-0.378 0.465,0 0,0" style="fill:#042b48;fill-opacity:1;fill-rule:nonzero;stroke:none" id="path4197" />
        </g>
        <g id="g4199" transform="translate(435.332,213.5928)" style="fill:#042b48;fill-opacity:1">
          <path d="m 0,0 c 0,-2.225 -0.685,-4.08 -2.034,-5.516 -1.35,-1.437 -3.039,-2.167 -5.017,-2.167 -2.038,0 -3.751,0.718 -5.096,2.13 -1.34,1.415 -2.022,3.291 -2.022,5.576 0,2.242 0.682,4.081 2.024,5.471 1.343,1.391 3.056,2.096 5.094,2.096 2.026,0 3.724,-0.716 5.05,-2.132 C -0.675,4.046 0,2.209 0,0 m -5.813,13.324 c -1.536,0 -3.091,-0.305 -4.385,-0.862 -1.508,-0.646 -2.894,-1.553 -3.903,-2.554 l -0.601,-0.48 -2.708,2.543 -2.843,0 c -0.465,0 -0.842,-0.377 -0.842,-0.842 l 0,-32.911 c 0,-0.467 0.378,-0.845 0.845,-0.845 l 4.701,0 c 0.467,0 0.847,0.379 0.847,0.847 l 0,12.166 0.598,-0.455 c 1.287,-1.204 2.95,-2.034 4.125,-2.52 1.249,-0.516 2.621,-0.78 4.076,-0.78 3.306,0 6.085,1.248 8.499,3.812 2.408,2.557 3.581,5.661 3.581,9.488 0,3.886 -1.176,7.13 -3.505,9.64 -2.302,2.491 -5.157,3.753 -8.485,3.753" style="fill:#042b48;fill-opacity:1;fill-rule:nonzero;stroke:none" id="path4201" />
        </g>
        <g id="g4203" transform="translate(389.2285,216.1636)" style="fill:#042b48;fill-opacity:1">
          <path d="M 0,0 0.149,0.387 C 0.996,2.253 1.776,3.432 2.53,3.991 3.894,5 5.495,5.513 7.295,5.513 c 1.543,0 3.024,-0.499 4.396,-1.485 1.209,-0.865 2.09,-2.13 2.533,-3.616 L 14.325,0 0,0 Z m 6.978,10.753 c -3.801,0 -6.871,-1.255 -9.39,-3.836 -2.52,-2.584 -3.745,-5.741 -3.745,-9.651 0,-3.815 1.228,-6.902 3.757,-9.439 2.526,-2.535 5.709,-3.766 9.73,-3.766 2.584,0 4.824,0.454 6.656,1.348 1.543,0.752 2.915,1.843 4.079,3.243 0.167,0.203 0.233,0.472 0.172,0.728 -0.056,0.257 -0.23,0.472 -0.469,0.583 l -3.782,1.739 c -0.3,0.138 -0.656,0.089 -0.907,-0.128 -1.691,-1.459 -3.641,-2.2 -5.797,-2.2 -2.156,0 -3.793,0.489 -5.008,1.493 -1.29,1.072 -2.003,2.191 -2.332,3.679 l 19.696,0 c 0.466,0 0.842,0.375 0.844,0.841 l 0.007,0.835 c 0,4.359 -1.369,8.256 -3.757,10.695 -2.529,2.581 -5.718,3.836 -9.754,3.836" style="fill:#042b48;fill-opacity:1;fill-rule:nonzero;stroke:none" id="path4205" />
        </g>
        <g id="g4207" transform="translate(358.0928,216.1636)" style="fill:#042b48;fill-opacity:1">
          <path d="m 0,0 0.148,0.386 c 0.854,1.871 1.635,3.05 2.387,3.605 1.36,1.009 2.963,1.522 4.763,1.522 1.542,0 3.022,-0.5 4.396,-1.485 1.208,-0.865 2.088,-2.13 2.533,-3.615 L 14.326,0 0,0 Z m 6.979,10.753 c -3.798,0 -6.871,-1.255 -9.39,-3.836 -2.521,-2.584 -3.745,-5.741 -3.745,-9.651 0,-3.816 1.227,-6.904 3.757,-9.439 2.526,-2.535 5.709,-3.766 9.73,-3.766 2.584,0 4.824,0.454 6.656,1.348 1.544,0.752 2.915,1.843 4.079,3.244 0.168,0.202 0.231,0.471 0.172,0.728 -0.056,0.256 -0.231,0.471 -0.469,0.582 l -3.782,1.739 c -0.298,0.138 -0.655,0.089 -0.907,-0.128 -1.688,-1.459 -3.639,-2.2 -5.797,-2.2 -2.156,0 -3.793,0.489 -5.005,1.494 -1.29,1.071 -2.006,2.189 -2.335,3.678 l 19.696,0 c 0.465,0 0.844,0.375 0.847,0.841 l 0.004,0.835 c 0,4.358 -1.369,8.254 -3.757,10.695 -2.526,2.581 -5.715,3.836 -9.754,3.836" style="fill:#042b48;fill-opacity:1;fill-rule:nonzero;stroke:none" id="path4209" />
        </g>
        <g id="g4211" transform="translate(284.7451,212.1929)" style="fill:#042b48;fill-opacity:1">
          <path d="m 0,0 c -2.797,0 -5.063,2.266 -5.063,5.063 0,0.295 0.025,0.584 0.075,0.865 L -17.096,12.9 c -0.881,-0.744 -2.02,-1.193 -3.263,-1.193 -2.797,0 -5.064,2.267 -5.064,5.063 0,2.796 2.267,5.063 5.064,5.063 2.797,0 5.064,-2.267 5.064,-5.063 0,-0.322 -0.033,-0.637 -0.091,-0.943 L -3.322,8.881 c 0.889,0.775 2.051,1.245 3.322,1.245 2.795,0 5.062,-2.267 5.062,-5.063 C 5.062,2.266 2.795,0 0,0 m -15.357,-6.724 c 0,-2.796 -2.266,-5.063 -5.063,-5.063 -2.795,0 -5.062,2.267 -5.062,5.063 0,2.797 2.267,5.064 5.062,5.064 1.257,0 2.405,-0.459 3.29,-1.217 l 8.827,5.073 c 0.377,-1.089 0.963,-2.081 1.708,-2.929 l -8.843,-5.083 c 0.052,-0.295 0.081,-0.598 0.081,-0.908 M 15.087,24.175 -8.955,37.913 c -1.637,0.935 -3.647,0.935 -5.284,0 l -24.04,-13.738 c -1.66,-0.948 -2.684,-2.714 -2.684,-4.624 l 0,-27.946 c 0,-1.902 1.015,-3.661 2.663,-4.612 l 41.387,-23.889 0.007,16.968 12.01,6.921 c 1.65,0.951 2.666,2.71 2.666,4.614 l 0,27.944 c 0,1.91 -1.024,3.676 -2.683,4.624" style="fill:#042b48;fill-opacity:1;fill-rule:nonzero;stroke:none" id="path4213" />
        </g>
      </g>
    </g>
  </g>
  <g id="Social-Cover" stroke="none" stroke-width="1" fill="none" fill-rule="evenodd">
    <g id="Monogram-Dark-Background" transform="translate(-350.000000, -200.000000)" fill="#8E75FF">
      <g id="Logo" transform="translate(564.000000, 357.000000)">
        <g filter="url(#filter0_d_1_347)" transform="translate(-210.000000, -150.000000)">
          <rect x="180" y="180" width="100" height="100" rx="20" fill="white" />
        </g>
        <g id="Monogram" transform="translate(-20.000000, 46) scale(0.3)">
          <path d="M164.892662,165.07248 L164.892662,86.343565 C164.892662,83.5395527 162.619561,81.2664516 159.815549,81.2664516 L81.177926,81.2664516 L81.177926,0 L240.993475,0 C243.797487,-1.5457868e-14 246.070588,2.2731011 246.070588,5.0771134 L246.070588,165.07248 L164.892662,165.07248 Z" id="Combined-Shape-Copy" />
          <path d="M81.177926,0 L81.177926,81.2664516 L6.12389787,81.2664516 C4.72189171,81.2664516 3.58534116,80.129901 3.58534116,78.7278949 C3.58534116,78.0551071 3.85241582,77.4098346 4.32788926,76.9338427 L81.177926,0 Z" id="Rectangle-Copy-6" opacity="0.404989" />
          <path d="M246.070588,171.205824 L246.070588,246.338931 L164.892662,246.338931 L241.736023,169.411772 C242.726851,168.419864 244.334176,168.418988 245.326084,169.409816 C245.802754,169.885967 246.070588,170.532078 246.070588,171.205824 Z" id="Rectangle-Copy-7" opacity="0.404989" transform="translate(205.481625, 205.705706) scale(-1, -1) translate(-205.481625, -205.705706) " />
          <path d="M81.177926,81.2664516 L162.354106,81.2664516 C163.756112,81.2664516 164.892662,82.4030021 164.892662,83.8050083 L164.892662,165.07248 L86.2550394,165.07248 C83.4510271,165.07248 81.177926,162.799379 81.177926,159.995366 L81.177926,81.2664516 Z" id="Rectangle-Copy-8" opacity="0.404989" />
        </g>
      </g>
    </g>
  </g>
</svg>