<?xml version="1.0" encoding="UTF-8" standalone="no"?>
<!DOCTYPE svg PUBLIC "-//W3C//DTD SVG 1.1//EN" "http://www.w3.org/Graphics/SVG/1.1/DTD/svg11.dtd">
<svg width="100%" height="100%" viewBox="0 0 1000 1000" version="1.1" xmlns="http://www.w3.org/2000/svg" xmlns:xlink="http://www.w3.org/1999/xlink" xml:space="preserve" xmlns:serif="http://www.serif.com/" style="fill-rule:evenodd;clip-rule:evenodd;stroke-linejoin:round;stroke-miterlimit:2;">
    <path d="M1000,83.369C1000,37.356 962.644,0 916.631,0L83.369,0C37.356,0 0,37.356 0,83.369L0,916.631C0,962.644 37.356,1000 83.369,1000L916.631,1000C962.644,1000 1000,962.644 1000,916.631L1000,83.369Z" style="fill:rgb(25,46,177);"/>
    <g>
        <g transform="matrix(41.6667,0,0,41.6667,0.519294,-0.0106845)">
            <path d="M13.112,15.64L17.497,15.64L15.504,10.686L13.112,15.64ZM18.302,17.64L12.146,17.64L10.488,21.075C10.322,21.42 9.971,21.641 9.587,21.641C9.039,21.641 8.587,21.189 8.587,20.64C8.587,20.49 8.621,20.341 8.686,20.205L13.703,9.817C14.037,9.128 14.738,8.687 15.504,8.687C16.319,8.687 17.055,9.185 17.359,9.94L21.515,20.267C21.563,20.386 21.588,20.512 21.588,20.64C21.588,21.189 21.136,21.64 20.587,21.64C20.18,21.64 19.811,21.391 19.659,21.013L18.302,17.64ZM3.388,2.36L11.388,2.36C11.936,2.36 12.388,2.812 12.388,3.36C12.388,3.909 11.936,4.36 11.388,4.36L3.388,4.36C2.839,4.36 2.388,3.909 2.388,3.36C2.388,2.812 2.839,2.36 3.388,2.36ZM3.388,7.36C2.839,7.36 2.388,6.909 2.388,6.36C2.388,5.812 2.839,5.36 3.388,5.36L10.391,5.36C11.12,5.36 11.763,5.759 12.112,6.349C12.288,6.646 12.39,6.992 12.39,7.36C12.39,7.708 12.299,8.05 12.127,8.352C11.182,10.006 10.134,11.196 8.962,11.906C7.49,12.799 5.642,13.278 3.425,13.359C3.404,13.361 3.383,13.361 3.362,13.361C2.814,13.361 2.362,12.91 2.362,12.361C2.362,11.817 2.806,11.368 3.351,11.361C5.249,11.291 6.77,10.897 7.925,10.196C8.772,9.683 9.601,8.742 10.391,7.36L3.388,7.36Z" style="fill:rgb(235,235,235);fill-rule:nonzero;stroke:rgb(235,235,235);stroke-width:0.02px;"/>
        </g>
        <g transform="matrix(-63.5076,4.02553e-15,-4.02553e-15,-63.5076,1696.9,658.669)">
            <path d="M15.697,8.823C13.96,8.823 13.493,8.156 13.493,5.648C13.493,5.64 14.453,5.648 14.453,5.648L13.493,4.688L12.533,5.648L13.493,5.648" style="fill:none;stroke:rgb(235,235,235);stroke-width:1.18px;stroke-linecap:round;stroke-miterlimit:1.5;"/>
        </g>
        <g transform="matrix(63.5076,3.7519e-15,-3.7519e-15,63.5076,-766.903,333.019)">
            <path d="M16.8,8.928C14.855,8.928 14.595,8.136 14.595,5.779C14.595,5.771 15.555,5.779 15.555,5.779L14.595,4.819L13.635,5.779L14.595,5.779" style="fill:none;stroke:rgb(235,235,235);stroke-width:1.18px;stroke-linecap:round;stroke-miterlimit:1.5;"/>
        </g>
    </g>
</svg>
